<svg xmlns="http://www.w3.org/2000/svg" xmlns:xlink="http://www.w3.org/1999/xlink" width="165.28" height="31.527" viewBox="0 0 165.28 31.527">
  <defs>
    <linearGradient id="linear-gradient" x1="0.406" y1="0.669" x2="0.657" y2="0.68" gradientUnits="objectBoundingBox">
      <stop offset="0" stop-color="#0b2345"/>
      <stop offset="1" stop-color="#792d84"/>
    </linearGradient>
  </defs>
  <g id="fincare-logo" transform="translate(-73.625 -351.862)">
    <path id="União_1" data-name="União 1" d="M73.388,24.1v-.219c0-4.4,3.957-6.639,10.068-6.947l4.222-.308v-.658c0-3.078-2.2-4.046-5.541-4.046a13.268,13.268,0,0,0-6.6,1.715l-1.32-2.946a15.182,15.182,0,0,1,8.135-2.2c5.057,0,8.927,2.023,8.927,7.915V29.679a18.069,18.069,0,0,1-8.574,1.847C77.7,31.527,73.388,29.2,73.388,24.1Zm10.067-4.265c-4,.219-6.463,1.319-6.463,4.045v.22c0,2.815,2.463,4,5.8,4a13.712,13.712,0,0,0,4.881-.792v-7.7Zm26.867.748V19.436c0-7.739,3.606-10.95,8.971-10.95,5.32,0,8.971,3.21,8.971,10.95v1.979H114.017v.219c0,4.309,2.506,6.332,6.243,6.332a12.709,12.709,0,0,0,4.3-.755l2.305-1.1c2.54-1.293,6.9-4.191,11.809-10.4l.224-.234c1.209-1.051,2.354-1.363,3.411-.924,1.843.768,2,3.2,2.19,6.019a16.382,16.382,0,0,0,.614,4.218c2.12-.994,8.111-9,13.292-17.074L154.8,4.851l5.241-1.4,5.239-1.4-.175,5.422-.174,5.421-3.771-3c-5.116,8.018-12.483,18.45-16.172,18.45-3.47,0-3.758-4.365-3.969-7.552-.043-.66-.1-1.514-.187-2.2-6.7,8.2-12.486,10.853-14.643,11.61a14.834,14.834,0,0,1-5.93,1.186C114.28,31.4,110.322,28.186,110.322,20.579Zm3.694-2.243V18.6h10.509v-.263c0-4.53-2.155-6.42-5.232-6.42S114.016,13.807,114.016,18.336ZM54.128,20.4V19.48c0-7.959,4.133-10.994,9.849-10.994a13.137,13.137,0,0,1,7.431,2.2C70.924,11.74,70.485,12.8,70,13.851a10.341,10.341,0,0,0-6.024-1.935c-3.694,0-6.2,1.891-6.2,7.564V20.4c0,5.672,2.507,7.564,6.2,7.564A10.654,10.654,0,0,0,70,26.075c.483,1.056.923,2.066,1.407,3.123a13.133,13.133,0,0,1-7.431,2.2C58.261,31.4,54.128,28.361,54.128,20.4ZM96.252,31V10.333a15.63,15.63,0,0,1,7.431-1.847A10.314,10.314,0,0,1,108.388,9.5l-1.451,3.254a6.043,6.043,0,0,0-3.254-.836,9.317,9.317,0,0,0-3.825.836V31ZM46.346,31V19.26c0-5.5-2.462-7.344-6.2-7.344a10.931,10.931,0,0,0-4.485.836V31H32.055V10.333a17.456,17.456,0,0,1,8.311-1.847c5.541,0,9.586,3.254,9.586,10.994V31ZM22.821,31V9.014h3.65V31ZM0,31V2.418H19.216V5.936H3.781V14.2H17.457V17.72H3.781V31ZM22.338,2.33a2.308,2.308,0,1,1,4.617,0,2.308,2.308,0,0,1-4.617,0Z" transform="translate(73.625 351.862)" fill="url(#linear-gradient)"/>
  </g>
</svg>
