<svg id="Grupo_399" data-name="Grupo 399" xmlns="http://www.w3.org/2000/svg" width="36.619" height="32.126" viewBox="0 0 36.619 32.126">
  <path id="Caminho_300" data-name="Caminho 300" d="M904.6,753.521c0-.91,0-1.82,0-2.73,0-.664.178-.837.853-.841,1.086-.006,2.174,0,3.261,0,1,0,1.126.122,1.127,1.105q0,6.979,0,13.957v.769h2.342V765.1q0-4.92,0-9.839c0-.853.143-1,.994-1q1.63,0,3.26,0c.858,0,1.006.145,1.006.987q0,4.891,0,9.781v.737H919.8v-.677q0-2.888,0-5.778c0-.778.157-.925.946-.927,1.162,0,2.326,0,3.489,0,.641,0,.809.169.809.823.007,2,.015,4-.007,6.006-.005.464.116.625.6.617,1.408-.023,1.408,0,1.408,1.408,0,.21,0,.42,0,.63a.574.574,0,0,1-.593.628,5.5,5.5,0,0,1-.571.008q-10.7,0-21.392.011a3.312,3.312,0,0,0-1.211.231,9.921,9.921,0,0,1-10.668-2,7.435,7.435,0,0,1-1.282-8.817,27.047,27.047,0,0,1,3.841-5.246c.15-.171.3-.341.5-.566a2.033,2.033,0,0,1-.807-1.846c.11-.784.607-1.237,1.5-1.609-.413-.34-.758-.582-1.053-.875a1.846,1.846,0,0,1,1.994-3.08c.068.025.139.041.242.071a1.927,1.927,0,0,1,1.955-1.466,1.868,1.868,0,0,1,1.739,1.465c.182-.057.338-.1.494-.154a1.828,1.828,0,0,1,2.153.742,1.792,1.792,0,0,1-.193,2.22,15.781,15.781,0,0,1-1.182,1.046c1.731,1.016,1.9,2.078.652,3.494l1.282,1.471Zm-5.146-1.177c-.686,0-1.373-.015-2.059.01a.85.85,0,0,0-.55.211,30.166,30.166,0,0,0-4.363,5.641,6.3,6.3,0,0,0,1.729,8.418,8.422,8.422,0,0,0,9.183.768,6.409,6.409,0,0,0,2.689-9.6c-.817-1.3-1.806-2.5-2.752-3.719a4.928,4.928,0,0,0-1.515-1.6,6.22,6.22,0,0,0-2.248-.123C899.527,752.343,899.489,752.344,899.45,752.344Zm16.843,13.439c0-3.373,0-6.683,0-9.993,0-.313-.149-.385-.422-.382-.628.007-1.257.03-1.883-.007-.506-.03-.684.111-.679.657.028,3.045.013,6.09.015,9.135,0,.185.015.37.026.591Zm-9.271.037h.913c.757,0,.757,0,.757-.732q0-6.633,0-13.266a1.639,1.639,0,0,0-.019-.454c-.031-.1-.153-.251-.237-.253-.885-.018-1.771-.011-2.7-.011,0,1.174.019,2.259-.009,3.343a2.03,2.03,0,0,0,.427,1.367,15.767,15.767,0,0,1,1.2,1.875,7.74,7.74,0,0,1,.962,4.733A8.2,8.2,0,0,1,907.023,765.819Zm-7.835-17.107c.609,0,1.028.017,1.445-.008a.874.874,0,0,0,.515-.178,19.283,19.283,0,0,0,1.639-1.665,1.012,1.012,0,0,0,.105-.861c-.141-.353-.507-.395-.88-.25-1.029.4-1.453.2-1.95-.781a.967.967,0,0,0-.673-.471.882.882,0,0,0-.627.455c-.51,1-.932,1.2-1.939.8-.372-.146-.74-.116-.887.234a1.133,1.133,0,0,0,.1.87c.17.3.516.5.737.785A2.227,2.227,0,0,0,899.188,748.712Zm24.678,10.82c-.889,0-1.7.008-2.521,0-.294,0-.405.111-.4.4.006,1.827,0,3.654.015,5.48,0,.136.171.384.27.387.868.031,1.739.018,2.64.018ZM899.356,751.2c.877,0,1.755,0,2.632,0,.463,0,.822-.169.837-.656s-.354-.68-.809-.68q-2.6,0-5.206,0c-.448,0-.812.156-.8.683s.379.652.828.652Q898.1,751.194,899.356,751.2Zm6.392,15.938c.011.076.021.152.031.228H925.2a1.707,1.707,0,0,0,.454-.016c.105-.029.185-.144.365-.3a3.587,3.587,0,0,0-.473-.08q-9.6,0-19.209,0A2.355,2.355,0,0,0,905.749,767.134Z" transform="translate(-890.426 -737.36)" fill="#792d84" fill-rule="evenodd"/>
  <path id="Caminho_301" data-name="Caminho 301" d="M957.782,732.99c.149-1.069.15-1.073-1.156-1.277a19.8,19.8,0,0,1-9.9-4.547,16.69,16.69,0,0,1-5.493-8.185.888.888,0,0,1-.089-.384c.063-.25.144-.659.284-.689a.9.9,0,0,1,.748.268c.406.5.7,1.091,1.085,1.609a18.674,18.674,0,0,0,10.181,6.786c1.333.382,2.708.624,4.074.878.751.14.771.081.8-.669a7.325,7.325,0,0,1,.042-.743c.1-.687.54-.868,1.082-.42,1.116.922,2.219,1.862,3.327,2.8.335.283.68.557,1,.855.387.363.39.68-.042,1q-2.41,1.787-4.858,3.529c-.177.125-.606.176-.708.065A2.754,2.754,0,0,1,957.782,732.99Zm1.7-5.844c-.038.275-.063.424-.078.573-.1.911-.191,1.014-1.107.929a25.9,25.9,0,0,1-2.6-.342,22.533,22.533,0,0,1-10.485-4.775c-.207-.175-.417-.346-.626-.518a3.6,3.6,0,0,0,.64,1.021,18.608,18.608,0,0,0,12.489,6.643c1.31.141,1.31.139,1.485,1.48,1.117-.815,2.2-1.6,3.34-2.434Z" transform="translate(-929.267 -717.898)" fill="#792d84" fill-rule="evenodd"/>
  <path id="Caminho_302" data-name="Caminho 302" d="M917.184,802.089c.086-.086.242-.37.428-.393a.787.787,0,0,1,.625.327,1.881,1.881,0,0,0,2.418.983c.389-.132.754-.333.782-.809a.921.921,0,0,0-.661-.963c-.39-.145-.8-.23-1.2-.343a7.155,7.155,0,0,1-.818-.24,1.962,1.962,0,0,1-1.377-1.91,2.055,2.055,0,0,1,1.4-1.97c.329-.134.528-.265.58-.659.025-.189.344-.493.5-.473a.774.774,0,0,1,.557.482c.046.412.308.475.581.657a6.282,6.282,0,0,1,1.247,1.118.577.577,0,0,1-.106.939c-.409.242-.661-.012-.875-.358a1.511,1.511,0,0,0-2.117-.587,1.282,1.282,0,0,0-.582.874c-.008.266.319.633.593.793a4.327,4.327,0,0,0,1.146.312c1.015.25,1.94.617,2.224,1.78a1.95,1.95,0,0,1-1.452,2.418c-.356.125-.647.2-.672.685-.009.16-.363.425-.549.415a.708.708,0,0,1-.494-.48c-.047-.376-.234-.492-.546-.606A2.35,2.35,0,0,1,917.184,802.089Z" transform="translate(-910.918 -777.434)" fill="#792d84" fill-rule="evenodd"/>
</svg>
