<svg id="Grupo_739" data-name="Grupo 739" xmlns="http://www.w3.org/2000/svg" width="36.62" height="31.373" viewBox="0 0 36.62 31.373">
  <path id="Caminho_315" data-name="Caminho 315" d="M424.674,732.016v17.633c0,1.049-.181,1.23-1.23,1.23H399.022c-1.1,0-1.271-.17-1.271-1.248q0-8.407,0-16.815V732c-.267.193-.432.3-.583.422-.991.8-1.975,1.62-2.971,2.418a.731.731,0,0,1-1.146-.069c-.308-.455-.082-.791.272-1.081q1.813-1.487,3.629-2.969c.959-.784,1.932-1.553,2.864-2.368a1.22,1.22,0,0,0,.386-.8c.033-1.849.016-3.7.018-5.548,0-.964.179-1.149,1.118-1.152q1.716-.005,3.432,0c.931,0,1.123.2,1.128,1.154,0,.412,0,.823,0,1.37.33-.258.552-.424.766-.6q1.706-1.392,3.411-2.785a1.572,1.572,0,0,1,2.266-.01q8.3,6.782,16.6,13.568c.1.084.2.173.3.265a.665.665,0,0,1,.085,1.011.688.688,0,0,1-1.022.07c-.5-.383-.981-.788-1.468-1.186-.546-.445-1.089-.9-1.638-1.339C425.065,732.265,424.913,732.177,424.674,732.016Zm-1.451,17.375v-.647q0-8.721.006-17.442a.994.994,0,0,0-.394-.874q-5.393-4.378-10.764-8.784a1.112,1.112,0,0,0-1.723,0q-5.382,4.392-10.764,8.784a1,1,0,0,0-.39.876q.013,8.72.006,17.442v.643Zm-21.556-22.725.156.064c.82-.667,1.646-1.327,2.451-2.011a.7.7,0,0,0,.155-.462c.019-.512-.005-1.025.012-1.537.01-.323-.124-.438-.437-.431-.645.013-1.292-.012-1.936.018-.138.007-.381.179-.383.279C401.659,723.945,401.667,725.305,401.667,726.666Z" transform="translate(-392.906 -719.507)" fill="#ebebeb" fill-rule="evenodd"/>
</svg>
