<svg id="Grupo_402" data-name="Grupo 402" xmlns="http://www.w3.org/2000/svg" width="36.62" height="37.824" viewBox="0 0 36.62 37.824">
  <path id="Caminho_313" data-name="Caminho 313" d="M1414.986,714.615c.409-.453.831-.891,1.213-1.364a.947.947,0,0,0,.136-.547c.015-.868-.023-1.738.023-2.6a1.485,1.485,0,0,1,.357-.875q1.571-1.649,3.22-3.224a.615.615,0,0,1,1.125.453c.045.9.018,1.8.018,2.769.945,0,1.828-.029,2.708.017.27.015.674.177.755.377a.984.984,0,0,1-.288.792q-1.553,1.625-3.18,3.179a1.493,1.493,0,0,1-.877.354,24.121,24.121,0,0,1-2.425.007,1.178,1.178,0,0,0-1.03.435c-.306.352-.674.653-1,.965.5.68.968,1.263,1.377,1.887a13.53,13.53,0,0,1-1.144,16.262.636.636,0,0,0-.094.909q2.359,3.756,4.671,7.544a.735.735,0,0,0,.754.425c.451-.031.907,0,1.36-.008.431-.007.773.135.763.611-.009.434-.324.6-.738.573-.1-.005-.2,0-.3,0h-33.382c-.773,0-1.113-.179-1.064-.6.073-.646.6-.644,1.037-.565a2.123,2.123,0,0,0,2.445-1.351c1.269-2.247,2.685-4.412,4.058-6.6a.647.647,0,0,0-.062-.913,13.594,13.594,0,0,1,19.115-19.235C1414.643,714.37,1414.756,714.445,1414.986,714.615Zm-1.034.826A12.445,12.445,0,1,0,1397.373,734a12.484,12.484,0,0,0,18.19-1.783c4.287-5.659,2.582-12.771-.694-15.818l-1.6,1.548a10.122,10.122,0,1,1-15.863.866,9.717,9.717,0,0,1,5.893-3.983,10.025,10.025,0,0,1,8.987,2.173C1412.872,716.459,1413.412,715.95,1413.951,715.441Zm-3.211,4.993a6.617,6.617,0,0,1-1.02,9.311,6.523,6.523,0,0,1-9.258-9.036c2.18-2.919,5.49-3.336,9.338-1.2l1.606-1.606a8.789,8.789,0,0,0-12.158.564,8.9,8.9,0,1,0,13.5,11.564c3.039-4,1.816-9.106-.423-11.134Zm-1.646.171a5.287,5.287,0,0,0-7.43.5,5.337,5.337,0,1,0,8.072,6.984,5.127,5.127,0,0,0-.079-6.831c-.277.346-.543.713-.847,1.048a.58.58,0,1,1-.814-.817C1408.328,721.186,1408.7,720.922,1409.094,720.605Zm3.2,21.741c-.956-1.544-1.835-2.986-2.748-4.407a.653.653,0,0,0-.563-.119,12.983,12.983,0,0,1-6.551-.006.59.59,0,0,0-.765.323c-.762,1.266-1.553,2.514-2.329,3.773a3.579,3.579,0,0,0-.19.437Zm2.5-7.435-4.142,2.529c.962,1.554,1.943,3.143,2.935,4.725a.468.468,0,0,0,.329.195c1.786.013,3.575.009,5.491.009C1417.83,739.8,1416.3,737.333,1414.8,734.911Zm-22.792,7.377a1.235,1.235,0,0,0,.243.076c1.7,0,3.39.016,5.084-.01a.783.783,0,0,0,.535-.348c.91-1.428,1.794-2.872,2.684-4.315a1.523,1.523,0,0,0,.116-.276l-4.1-2.506Zm27.881-34.378-.144-.094c-.713.722-1.427,1.442-2.132,2.171a.417.417,0,0,0-.084.272c-.007.821-.005,1.641-.005,2.516.888,0,1.71,0,2.532,0a.424.424,0,0,0,.269-.092c.727-.7,1.447-1.412,2.169-2.12l-.081-.147c-.582,0-1.165-.007-1.747,0-.547.009-.791-.253-.779-.793C1419.9,709.049,1419.893,708.478,1419.893,707.909Z" transform="translate(-1387.939 -705.731)" fill="#792d84" fill-rule="evenodd"/>
  <path id="Caminho_314" data-name="Caminho 314" d="M1453.507,775.719c.07-.07.2-.3.352-.322a.646.646,0,0,1,.512.269,1.542,1.542,0,0,0,1.982.806c.319-.108.618-.273.642-.663a.757.757,0,0,0-.542-.789c-.321-.119-.658-.188-.988-.281a5.731,5.731,0,0,1-.671-.2,1.607,1.607,0,0,1-1.128-1.566,1.685,1.685,0,0,1,1.146-1.615c.27-.11.433-.217.475-.541.02-.155.282-.4.406-.388a.635.635,0,0,1,.456.395c.037.338.253.39.476.539a5.188,5.188,0,0,1,1.022.915.473.473,0,0,1-.086.77c-.335.2-.542-.009-.718-.293a1.238,1.238,0,0,0-1.734-.482,1.05,1.05,0,0,0-.475.716c-.007.217.261.518.485.65a3.519,3.519,0,0,0,.94.256c.832.206,1.59.505,1.823,1.458a1.6,1.6,0,0,1-1.191,1.983c-.292.1-.53.168-.55.562-.007.131-.3.348-.45.341a.581.581,0,0,1-.405-.393c-.038-.308-.193-.4-.448-.5A1.929,1.929,0,0,1,1453.507,775.719Z" transform="translate(-1438.152 -755.28)" fill="#792d84" fill-rule="evenodd"/>
</svg>
