<svg id="Grupo_401" data-name="Grupo 401" xmlns="http://www.w3.org/2000/svg" width="36.62" height="35.791" viewBox="0 0 36.62 35.791">
  <path id="Caminho_310" data-name="Caminho 310" d="M687.563,710.075a10.108,10.108,0,1,1-10.105,10.288A10.1,10.1,0,0,1,687.563,710.075Zm-.021,18.936a8.842,8.842,0,1,0-8.823-8.844A8.865,8.865,0,0,0,687.542,729.011Z" transform="translate(-669.077 -710.074)" fill="#792d84" fill-rule="evenodd"/>
  <path id="Caminho_311" data-name="Caminho 311" d="M706.028,735.245c.108-.108.305-.469.543-.5a1,1,0,0,1,.793.415,2.384,2.384,0,0,0,3.064,1.246c.493-.167.955-.422.992-1.025a1.168,1.168,0,0,0-.839-1.221c-.494-.184-1.017-.291-1.526-.434a9.259,9.259,0,0,1-1.036-.3A2.487,2.487,0,0,1,706.274,731a2.605,2.605,0,0,1,1.773-2.5c.417-.17.669-.335.735-.836.031-.239.436-.625.628-.6a.979.979,0,0,1,.706.611c.058.523.391.6.736.833a7.954,7.954,0,0,1,1.581,1.416.73.73,0,0,1-.134,1.19c-.518.305-.838-.015-1.109-.454a1.916,1.916,0,0,0-2.682-.744,1.625,1.625,0,0,0-.736,1.107c-.01.337.4.8.75,1.006a5.5,5.5,0,0,0,1.452.4c1.286.318,2.459.781,2.818,2.254a2.471,2.471,0,0,1-1.84,3.065c-.451.159-.82.259-.851.868-.011.2-.459.538-.7.527a.9.9,0,0,1-.626-.609c-.059-.477-.3-.623-.691-.768A2.979,2.979,0,0,1,706.028,735.245Z" transform="translate(-690.958 -723.091)" fill="#792d84" fill-rule="evenodd"/>
  <path id="Caminho_312" data-name="Caminho 312" d="M647.951,798.795c.886-.351,1.693-.738,2.538-.989a7.238,7.238,0,0,1,5.393.532c1.112.544,2.21,1.126,3.288,1.738a2.191,2.191,0,0,0,2.3,0c1.486-.8,3-1.551,4.5-2.312a3.28,3.28,0,0,1,4.072.664.511.511,0,0,0,.724.122c1.131-.6,2.265-1.194,3.415-1.757a2.879,2.879,0,0,1,3.475.56,1.862,1.862,0,0,1-.324,3.026q-3.638,2.457-7.292,4.9-2.356,1.58-4.714,3.157a6.816,6.816,0,0,1-4.823,1.072c-2.5-.316-5.008-.606-7.52-.8a10.741,10.741,0,0,0-2.523.323c-.109.018-.238.24-.26.382a1.625,1.625,0,0,0,.087.536c.152.724.014.954-.724,1.118-1.408.314-2.82.611-4.228.921-.554.122-.846-.105-.958-.644q-.745-3.58-1.5-7.158-.578-2.743-1.153-5.487c-.144-.687-.032-.905.636-1.055,1.466-.329,2.939-.636,4.408-.953a.641.641,0,0,1,.849.553C647.736,797.752,647.839,798.268,647.951,798.795Zm4.5,4.917c.209.038.388.062.564.1,1.778.426,3.557.845,5.332,1.283a5.13,5.13,0,0,0,3.9-.478c2.31-1.323,4.59-2.7,6.875-4.067.519-.311.563-.623.215-1.11a2.15,2.15,0,0,0-2.781-.6c-1.56.787-3.119,1.578-4.666,2.391a3.153,3.153,0,0,1-3.195-.036c-1.067-.59-2.14-1.17-3.235-1.708a6.482,6.482,0,0,0-6.824.48.572.572,0,0,0-.289.7c.415,1.884.8,3.775,1.2,5.664.107.507.218,1.011.308,1.424a23.946,23.946,0,0,1,3.418-.259c2.128.138,4.257.364,6.362.7a7.434,7.434,0,0,0,6.022-1.421c1.615-1.23,3.362-2.284,5.051-3.417q2.913-1.953,5.823-3.912c.708-.478.7-.976-.005-1.468a1.636,1.636,0,0,0-1.789-.1c-1.123.571-2.235,1.164-3.369,1.714a1.37,1.37,0,0,0-.694.828,2.562,2.562,0,0,1-.912,1.152c-2.248,1.388-4.525,2.732-6.813,4.052a5.785,5.785,0,0,1-4.11.776c-1.969-.4-3.921-.888-5.877-1.351-.914-.215-.911-.229-.621-1.125C652.352,803.877,652.388,803.826,652.448,803.711Zm-6.951,6.969c1.011-.216,1.953-.448,2.908-.61.5-.085.628-.253.516-.764-.571-2.6-1.1-5.2-1.65-7.8-.246-1.165-.5-2.33-.756-3.522l-3.522.781C643.836,802.778,644.66,806.7,645.5,810.681Z" transform="translate(-641.671 -776.225)" fill="#792d84" fill-rule="evenodd"/>
</svg>
