<svg id="Grupo_400" data-name="Grupo 400" xmlns="http://www.w3.org/2000/svg" width="36.619" height="36.627" viewBox="0 0 36.619 36.627">
  <path id="Caminho_303" data-name="Caminho 303" d="M1145.467,800.575c.887-.35,1.693-.737,2.539-.989a7.235,7.235,0,0,1,5.393.533c1.113.544,2.209,1.126,3.287,1.738a2.191,2.191,0,0,0,2.3,0c1.486-.8,3-1.551,4.5-2.312a3.281,3.281,0,0,1,4.073.663.51.51,0,0,0,.724.122c1.131-.6,2.266-1.195,3.415-1.757a2.879,2.879,0,0,1,3.475.56,1.862,1.862,0,0,1-.324,3.025q-3.638,2.458-7.292,4.9-2.356,1.58-4.714,3.157a6.819,6.819,0,0,1-4.823,1.072c-2.5-.316-5.007-.606-7.519-.8a10.73,10.73,0,0,0-2.523.323c-.11.018-.238.24-.26.382a1.651,1.651,0,0,0,.087.536c.152.724.014.953-.724,1.118-1.408.313-2.82.61-4.227.921-.555.122-.846-.1-.958-.645q-.746-3.58-1.5-7.158-.577-2.743-1.152-5.487c-.144-.687-.033-.905.635-1.055,1.466-.329,2.939-.636,4.408-.953a.641.641,0,0,1,.85.553C1145.253,799.532,1145.356,800.049,1145.467,800.575Zm4.5,4.917c.209.038.388.062.565.1,1.778.426,3.556.845,5.332,1.284a5.127,5.127,0,0,0,3.9-.478c2.31-1.323,4.591-2.7,6.876-4.067.519-.311.562-.623.215-1.11a2.151,2.151,0,0,0-2.782-.6c-1.56.787-3.119,1.578-4.666,2.391a3.152,3.152,0,0,1-3.194-.036c-1.067-.59-2.141-1.17-3.235-1.708a6.481,6.481,0,0,0-6.823.48.573.573,0,0,0-.29.7c.415,1.884.8,3.775,1.2,5.664.107.507.218,1.011.308,1.424a23.931,23.931,0,0,1,3.418-.26c2.128.138,4.257.364,6.362.7a7.435,7.435,0,0,0,6.023-1.421c1.615-1.229,3.363-2.284,5.051-3.417q2.913-1.953,5.823-3.912c.708-.478.7-.976-.006-1.468a1.636,1.636,0,0,0-1.788-.1c-1.123.571-2.235,1.165-3.369,1.714a1.369,1.369,0,0,0-.693.828,2.572,2.572,0,0,1-.912,1.152c-2.249,1.389-4.525,2.733-6.813,4.052a5.787,5.787,0,0,1-4.109.777c-1.969-.4-3.921-.888-5.877-1.35-.914-.215-.911-.229-.621-1.125A1.742,1.742,0,0,1,1149.965,805.491Zm-6.951,6.969c1.011-.216,1.953-.447,2.908-.61.5-.085.628-.252.516-.763-.57-2.6-1.1-5.2-1.651-7.8-.245-1.165-.5-2.33-.755-3.522l-3.522.781C1141.353,804.558,1142.177,808.482,1143.014,812.461Z" transform="translate(-1139.188 -777.17)" fill="#792d84" fill-rule="evenodd"/>
  <path id="Caminho_304" data-name="Caminho 304" d="M1180.684,708.3c1.031,0,2.027-.037,3.015.029a.875.875,0,0,1,.581.614c.064.97.028,1.947.028,2.968h-1.2v-1.485c-.265.235-.428.365-.575.51q-2.742,2.738-5.48,5.478c-.585.584-.765.586-1.35,0-1.573-1.588-3.143-3.181-4.762-4.82-.25.229-.445.4-.625.579q-3.044,3.04-6.085,6.082c-.582.58-.764.582-1.351-.015-1.167-1.186-2.328-2.379-3.523-3.6l-8.116,8.19c-.346-.368-.6-.637-.932-.99,1.223-1.2,2.432-2.374,3.628-3.559,1.56-1.546,3.11-3.1,4.665-4.654.606-.606.773-.608,1.393.021,1.156,1.172,2.305,2.349,3.5,3.572.27-.249.479-.431.675-.625q3.044-3.039,6.087-6.081c.522-.521.731-.519,1.266.013q2.119,2.11,4.227,4.23a4.724,4.724,0,0,1,.447.606l5.752-5.808h-1.263C1180.684,709.106,1180.684,708.748,1180.684,708.3Z" transform="translate(-1147.701 -708.289)" fill="#792d84" fill-rule="evenodd"/>
  <path id="Caminho_305" data-name="Caminho 305" d="M1256.417,757.746c0-1.4,0-2.807,0-4.211,0-.732.176-.91.886-.916.65-.005,1.3.009,1.953,0,.554-.011.828.23.826.8q-.008,4.394,0,8.787c0,.524-.228.8-.765.8q-1.069,0-2.136,0c-.538,0-.767-.272-.765-.8C1256.421,760.716,1256.417,759.231,1256.417,757.746Zm2.412-3.863h-1.139v7.85h1.139Z" transform="translate(-1228.965 -742.235)" fill="#792d84" fill-rule="evenodd"/>
  <path id="Caminho_306" data-name="Caminho 306" d="M1213.159,762.421c0,1.221,0,2.441,0,3.661,0,.731-.177.911-.886.916-.65.005-1.3-.009-1.952,0-.555.01-.828-.23-.827-.8q.008-3.784,0-7.566c0-.525.227-.8.765-.8q1.068.005,2.136,0c.538,0,.768.271.765.8C1213.153,759.9,1213.159,761.161,1213.159,762.421Zm-2.393-3.34v6.658h1.124v-6.658Z" transform="translate(-1193.03 -746.239)" fill="#792d84" fill-rule="evenodd"/>
  <path id="Caminho_307" data-name="Caminho 307" d="M1236.616,769.388c0,.916.005,1.831,0,2.746,0,.647-.2.847-.823.855-.671.008-1.343-.008-2.013.005-.555.01-.829-.23-.828-.8q.011-2.867,0-5.735c0-.525.229-.8.767-.8q1.068.005,2.135,0c.538,0,.77.271.766.8C1236.611,767.436,1236.616,768.412,1236.616,769.388Zm-2.408,2.336h1.153v-4.793h-1.153Z" transform="translate(-1210.994 -752.229)" fill="#792d84" fill-rule="evenodd"/>
  <path id="Caminho_308" data-name="Caminho 308" d="M1189.707,778.575v1.647a.642.642,0,0,1-.7.738c-.752.009-1.506.006-2.258,0a.642.642,0,0,1-.708-.725q0-1.708,0-3.417a.641.641,0,0,1,.7-.738c.752-.008,1.506-.006,2.257,0a.641.641,0,0,1,.709.724C1189.708,777.4,1189.707,777.985,1189.707,778.575Zm-2.407-1.241V779.7h1.153v-2.363Z" transform="translate(-1175.072 -760.202)" fill="#792d84" fill-rule="evenodd"/>
  <path id="Caminho_309" data-name="Caminho 309" d="M1150.591,811.263l1.3-.289a2.762,2.762,0,0,1,.053,1.143.906.906,0,0,1-.858.219C1150.838,812.132,1150.775,811.7,1150.591,811.263Z" transform="translate(-1147.921 -786.928)" fill="#792d84" fill-rule="evenodd"/>
</svg>
